<?xml version="1.0" encoding="utf-8"?>
<!-- Generator: Adobe Illustrator 24.3.0, SVG Export Plug-In . SVG Version: 6.00 Build 0)  -->
<svg version="1.1" id="Ebene_1" xmlns="http://www.w3.org/2000/svg" xmlns:xlink="http://www.w3.org/1999/xlink" x="0px" y="0px"
	 viewBox="0 0 62.3 74.7" style="enable-background:new 0 0 62.3 74.7;" xml:space="preserve">
<style type="text/css">
	.st0{fill:#009E98;}
	.st1{fill:#91B508;}
	.st2{fill:#757474;}
</style>
<g id="Gruppe_33" transform="translate(-1.123 -0.567)">
	<g id="Gruppe_1" transform="translate(28.926 57.624)">
		<path id="Pfad_1" class="st0" d="M34.1,0.8c-0.7,1.4-1.6,2.8-2.6,4c-6.3,8.1-15.9,12.8-26.1,12.7c-1.8,0-3.5-0.1-5.3-0.4l1.6-4.7
			c1.3,0.1,2.5,0.2,3.7,0.2c8.7,0,16.9-4,22.2-10.8C28,1.2,28.4,0.6,28.8,0h5.7C34.5,0,34.1,0.7,34.1,0.8z"/>
	</g>
	<g id="Gruppe_2" transform="translate(1.123 9.3)">
		<path id="Pfad_2" class="st1" d="M10.9,15.4c-9.6,12.3-7.4,30,4.9,39.6c0.8,0.6,1.6,1.2,2.4,1.7l-1.6,4.8l0,0
			c-1.3-0.8-2.6-1.6-3.8-2.6C-1.7,47.6-4.2,26.8,7,12.4C12.3,5.7,19.9,1.2,28.3,0l-1.9,5.4C20.3,6.9,14.8,10.4,10.9,15.4z"/>
	</g>
	<g id="Gruppe_25" transform="translate(40.256 0.567)">
		<path id="Pfad_24" class="st2" d="M9.6,12c-1.5,3.9-4.2,6.8-6.5,6.8c-0.3,0-0.6-0.1-0.9-0.2c-2.4-0.9-2.9-5.3-1.2-9.9
			c0.8-2.3,2.2-4.3,4-5.8c1.2-1.1,2.6-2,4-2.8L9.2,0l0.1,0.2c0.5,1.5,0.9,3.1,1.1,4.8C10.7,7.3,10.5,9.8,9.6,12z"/>
	</g>
	<g id="Gruppe_26" transform="translate(24.946 26.161)">
		<path id="Pfad_25" class="st2" d="M9.3,11.5c0,4.8-2,8.7-4.5,8.8l0,0c-2.3,0-4.7-4.1-4.8-8.4c-0.2-2.5,0.2-5,1.2-7.3
			C2,3,3,1.4,4.2,0l0.1,0l0.1,0.1C5.9,1.3,7,2.8,7.8,4.5C8.9,6.7,9.4,9.1,9.3,11.5z"/>
	</g>
	<g id="Gruppe_27" transform="translate(30.726 9.906)">
		<path id="Pfad_26" class="st2" d="M9.1,11.7c0,4.8-1.9,8.6-4.4,8.7H4.6c-2.3,0-4.5-4-4.6-8.3c-0.2-2.5,0.2-5,1.2-7.3
			C2,3.2,2.9,1.6,3.9,0C4,0.1,4.1,0.1,4.2,0.2C7.5,3.2,9.3,7.4,9.1,11.7L9.1,11.7z"/>
	</g>
	<g id="Gruppe_28" transform="translate(19.059 41.886)">
		<path id="Pfad_27" class="st2" d="M9.3,11.5c0,4.9-2,8.7-4.6,8.9l0,0c-2.3,0-4.6-4.1-4.7-8.4c-0.2-2.5,0.2-5,1.2-7.3
			C2,3.1,3,1.5,4.2,0.1L4.3,0l0.1,0.1C5.9,1.3,7,2.8,7.8,4.5C8.9,6.7,9.4,9.1,9.3,11.5z"/>
	</g>
	<g id="Gruppe_29" transform="translate(20.432 65.133)">
		<path id="Pfad_28" class="st2" d="M5.5,9.1L5.5,9.1C3.6,8.7,1.7,8,0,7.2l0,0L2.5,0c0,0,0.5,0.6,0.6,0.7c1,0.9,2.3,1.4,3.6,1.4
			C7.1,2.1,7.6,2,8,1.9L5.5,9.1z"/>
	</g>
	<g id="Gruppe_30" transform="translate(33.975 33.115)">
		<path id="Pfad_29" class="st2" d="M14.4,0v0.2c0,1.8-0.2,3.6-0.6,5.4c-0.7,2.4-2,4.6-3.8,6.4c-2,2.3-5,4-7.2,4
			c-0.7,0-1.3-0.2-1.8-0.6c-1.9-1.8-1-5.9,2.2-9.7c1.5-1.9,3.4-3.4,5.6-4.4c1.7-0.8,3.5-1.2,5.4-1.2L14.4,0z"/>
	</g>
	<g id="Gruppe_31" transform="translate(40.314 17.138)">
		<path id="Pfad_30" class="st2" d="M14.6,0c0,0,0,0.1,0,0.2c-0.2,1.8-0.5,3.7-1,5.4c-0.7,2.4-2,4.6-3.8,6.3c-2,2.3-5,3.9-7.1,3.9
			c-0.6,0-1.3-0.2-1.8-0.6C-0.9,13.5,0,9.3,3.1,5.7c1.5-1.9,3.4-3.4,5.6-4.4C10.6,0.6,12.6,0.1,14.6,0z"/>
	</g>
	<g id="Gruppe_32" transform="translate(28.4 48.954)">
		<path id="Pfad_31" class="st2" d="M14.4,0v0.2c0,1.8-0.2,3.6-0.6,5.4c-0.7,2.4-2,4.6-3.8,6.4c-2,2.3-5,4-7.2,4
			c-0.7,0-1.3-0.2-1.8-0.6c-1.9-1.7-0.9-6,2.2-9.7c1.5-1.9,3.4-3.4,5.6-4.4C10.5,0.5,12.4,0,14.2,0H14.4z"/>
	</g>
</g>
</svg>
